<?xml version="1.0" standalone="no"?>
<!DOCTYPE svg PUBLIC "-//W3C//DTD SVG 20010904//EN"
 "http://www.w3.org/TR/2001/REC-SVG-20010904/DTD/svg10.dtd">
<svg version="1.0" xmlns="http://www.w3.org/2000/svg"
 width="775.000000pt" height="324.000000pt" viewBox="0 0 775.000000 324.000000"
 preserveAspectRatio="xMidYMid meet">
<metadata>
Created by potrace 1.15, written by Peter Selinger 2001-2017
</metadata>
<g transform="translate(0.000000,324.000000) scale(0.100000,-0.100000)"
fill="#000000" stroke="none">
<path d="M3385 2694 c-139 -23 -253 -70 -354 -148 -102 -79 -101 -69 -10 -164
l80 -83 47 39 c109 88 183 115 317 115 102 0 179 -19 244 -62 23 -15 25 -14
57 24 19 22 34 43 34 48 0 13 19 7 45 -16 l26 -22 -36 -49 c-33 -43 -36 -50
-22 -63 13 -13 24 -6 95 69 92 95 93 85 -9 164 -74 57 -181 110 -260 129 -69
16 -206 26 -254 19z m63 -72 c4 -43 30 -43 34 1 3 30 5 32 38 30 19 -2 50 -5
68 -8 31 -6 32 -8 26 -41 -5 -29 -4 -34 14 -34 14 0 21 9 25 30 l6 30 52 -20
c69 -28 89 -39 89 -51 0 -7 -54 -112 -67 -128 -1 -2 -29 8 -61 22 -86 39 -192
53 -283 38 -85 -14 -185 -57 -244 -106 l-42 -34 -53 54 -54 55 27 27 c14 16
40 36 57 46 30 18 30 18 42 -7 12 -27 32 -34 43 -16 4 6 0 22 -9 35 -19 28
-12 35 62 64 l53 21 6 -30 c4 -21 11 -30 25 -30 18 0 19 5 14 34 -7 34 -6 35
31 41 21 4 45 8 53 10 33 7 45 -1 48 -33z"/>
<path d="M3649 2226 c-143 -192 -165 -216 -190 -216 -30 0 -59 -31 -59 -63 0
-22 43 -67 65 -67 9 0 27 12 42 26 20 20 24 32 19 55 -5 27 10 51 151 237 85
114 156 213 157 221 4 45 -40 -1 -185 -193z"/>
<path d="M3695 2148 c-3 -7 -4 -103 -3 -213 3 -192 4 -200 23 -200 18 0 20 7
22 90 2 50 5 100 8 112 16 68 212 94 245 33 5 -10 10 -61 10 -114 0 -107 5
-126 31 -126 24 0 33 50 26 152 -6 91 -22 123 -75 145 -47 20 -170 13 -206
-10 -14 -10 -28 -17 -30 -17 -3 0 -6 35 -8 77 -3 65 -6 78 -21 81 -9 2 -19 -3
-22 -10z"/>
<path d="M5075 2148 c-3 -7 -4 -103 -3 -213 3 -192 4 -200 23 -200 19 0 20 7
20 210 0 192 -1 210 -18 213 -9 2 -19 -3 -22 -10z"/>
<path d="M5505 2148 c-3 -7 -4 -103 -3 -213 3 -192 4 -200 23 -200 18 0 20 7
22 90 2 50 5 100 8 112 16 68 212 94 245 33 5 -10 10 -61 10 -114 0 -107 5
-126 31 -126 24 0 33 50 26 152 -6 91 -22 123 -75 145 -47 20 -170 13 -206
-10 -14 -10 -28 -17 -30 -17 -3 0 -6 35 -8 77 -3 65 -6 78 -21 81 -9 2 -19 -3
-22 -10z"/>
<path d="M5237 2133 c-4 -3 -7 -28 -7 -55 0 -41 -3 -48 -20 -48 -11 0 -20 -7
-20 -15 0 -8 9 -15 20 -15 18 0 20 -7 20 -89 0 -48 5 -102 11 -120 13 -37 53
-61 103 -61 42 0 106 28 106 47 0 17 -15 16 -66 -2 -82 -28 -104 0 -104 135
l0 89 67 3 c93 4 97 26 6 30 l-68 3 -3 53 c-2 42 -6 52 -21 52 -10 0 -21 -3
-24 -7z"/>
<path d="M761 2075 c-85 -27 -121 -81 -121 -183 0 -80 22 -122 79 -156 58 -34
189 -34 299 -1 20 7 22 4 22 -32 0 -51 -29 -89 -78 -103 -53 -14 -141 -12
-187 6 -66 26 -95 29 -95 10 0 -11 19 -26 48 -39 38 -18 65 -22 147 -22 116 0
165 18 203 74 22 34 22 40 20 240 -3 193 -4 206 -22 209 -10 2 -23 -3 -28 -11
-7 -14 -13 -14 -51 3 -50 23 -169 26 -236 5z m216 -40 c56 -24 62 -38 63 -148
l0 -98 -37 -16 c-88 -36 -229 -29 -273 16 -45 44 -49 158 -8 214 32 43 183 62
255 32z"/>
<path d="M1300 2077 c-53 -14 -64 -43 -15 -40 17 1 71 5 121 9 136 10 171 -6
195 -88 8 -29 7 -30 -19 -24 -58 15 -203 18 -249 7 -123 -31 -150 -155 -46
-207 59 -29 223 -27 280 3 l42 23 3 -23 c2 -12 11 -23 20 -25 30 -6 41 43 34
151 -10 176 -62 228 -231 226 -49 0 -110 -6 -135 -12z m278 -183 c30 -6 32 -9
32 -50 0 -41 -3 -45 -40 -64 -76 -39 -232 -38 -271 1 -41 41 -15 105 49 121
29 8 177 2 230 -8z"/>
<path d="M2451 2075 c-85 -27 -121 -81 -121 -183 0 -80 22 -122 79 -156 58
-34 189 -34 299 -1 20 7 22 4 22 -32 0 -51 -29 -89 -78 -103 -53 -14 -141 -12
-187 6 -66 26 -95 29 -95 10 0 -11 19 -26 48 -39 38 -18 65 -22 147 -22 116 0
165 18 203 74 22 34 22 40 20 240 -3 193 -4 206 -22 209 -10 2 -23 -3 -28 -11
-7 -14 -13 -14 -51 3 -50 23 -169 26 -236 5z m216 -40 c56 -24 62 -38 63 -148
l0 -98 -37 -16 c-88 -36 -229 -29 -273 16 -45 44 -49 158 -8 214 32 43 183 62
255 32z"/>
<path d="M3016 2076 c-46 -17 -90 -57 -106 -97 -7 -16 -11 -58 -8 -97 6 -115
57 -162 183 -170 83 -5 167 10 214 39 30 18 32 22 19 36 -14 13 -20 12 -59 -8
-36 -19 -60 -23 -136 -23 -111 -1 -142 15 -159 85 l-11 44 181 3 c129 2 182 6
188 15 14 22 8 82 -12 114 -10 18 -34 40 -52 49 -45 24 -189 29 -242 10z m183
-32 c44 -9 81 -47 81 -84 l0 -30 -160 0 -160 0 0 24 c0 33 35 74 73 85 38 11
122 13 166 5z"/>
<path d="M1797 2073 c-4 -3 -7 -61 -7 -127 0 -147 12 -179 80 -214 39 -20 56
-23 126 -20 59 3 91 10 116 25 l36 21 11 -25 c7 -15 18 -23 29 -21 15 3 17 21
20 181 2 155 0 178 -13 184 -32 12 -40 -16 -45 -150 l-5 -132 -38 -19 c-48
-23 -153 -32 -199 -17 -49 16 -58 44 -58 172 0 61 -5 119 -10 130 -11 19 -31
25 -43 12z"/>
<path d="M4233 2020 c-62 -28 -85 -70 -81 -147 4 -70 27 -105 85 -129 64 -28
231 -8 263 31 19 23 -9 28 -55 9 -49 -20 -163 -24 -197 -5 -27 14 -48 49 -48
81 0 18 10 20 153 22 l152 3 3 36 c4 43 -26 85 -74 105 -49 20 -151 17 -201
-6z m169 -20 c25 0 68 -44 68 -70 0 -19 -6 -20 -135 -20 -149 0 -156 4 -112
56 25 28 82 45 131 38 16 -2 37 -4 48 -4z"/>
<path d="M4674 2031 c-43 -11 -58 -21 -46 -33 6 -6 39 -5 91 2 45 6 90 9 99 6
9 -2 29 -7 44 -10 24 -6 58 -48 58 -73 0 -4 -53 -6 -117 -5 -110 4 -120 2
-153 -20 -109 -74 -28 -175 134 -166 39 2 85 11 103 20 30 15 32 15 36 -4 4
-13 12 -18 24 -16 16 3 18 16 21 103 3 116 -12 156 -69 187 -36 19 -161 24
-225 9z m185 -147 l61 -7 0 -37 c0 -34 -4 -40 -36 -55 -43 -20 -168 -24 -201
-7 -30 16 -38 48 -19 77 22 33 76 41 195 29z"/>
</g>
</svg>
